<svg fill='white' id="Capa_1" data-name="Capa 1" xmlns="http://www.w3.org/2000/svg" viewBox="0 0 851.42 216.6"><title>Objeto inteligente vectorial</title><g id="Layer0_0_FILL" data-name="Layer0 0 FILL"><path d="M253.67,110.25a10,10,0,0,1-2,1.1,15.92,15.92,0,0,0-1.75.9,13.48,13.48,0,0,0-4.05,4.6,16.8,16.8,0,0,0-2.35,8.35q0,4.6,4.3,8.55,4.15,3.75,8.45,3.75a10.31,10.31,0,0,0,9-4.9,15.52,15.52,0,0,0,2.75-9,12.73,12.73,0,0,0-4.4-9.6,12.54,12.54,0,0,0-8.7-3.8,11.2,11.2,0,0,0-1.2,0m-59.1-81.9q-1.18-.59-1.45-.7l-1.65-.3a21.48,21.48,0,0,0-2.4-.15q-4.75,0-7.9,4.4a13.57,13.57,0,0,0-2.75,8.1q0,4,3.85,8.3t8.15,4.35a14,14,0,0,0,8.75-2.75q3.85-3,3.25-9.15t-3.6-8.85a29.07,29.07,0,0,0-4.25-3.25M549.67,195.4q-3.7-5.55-10.85-5.55-5,0-9.4,4.4t-4.3,9.05q0,5.25,5.45,9.5,4.9,3.8,9.55,3.8a12.27,12.27,0,0,0,9-3.3,11.66,11.66,0,0,0,3.3-8.7,16.3,16.3,0,0,0-2.75-9.2M380.42,17.95q0-7.15-3.9-10.75a10.77,10.77,0,0,0-8.65-2.75,14,14,0,0,0-8.65,4,12.43,12.43,0,0,0-3.9,9.25,11.13,11.13,0,0,0,4.35,9,13.84,13.84,0,0,0,9,3.3,10.89,10.89,0,0,0,8.5-4.3,12.07,12.07,0,0,0,3.2-7.7m292.15,169.8a14.94,14.94,0,0,0,2.65-9.1,13,13,0,0,0-3.75-9.45,12.17,12.17,0,0,0-9-3.85,4.47,4.47,0,0,0-2.4.65,28.35,28.35,0,0,0-3.8,3.05l-2.55,3.15q-1.35,1.8-1.35,5.7a16.91,16.91,0,0,0,2.7,9.85,9.4,9.4,0,0,0,8.2,4.3q6.15,0,9.35-4.3M622.92,117.3q-3.4-3.35-9.4-3.35a20.9,20.9,0,0,0-3.95.85q-1.54.4-2.6.6a13.12,13.12,0,0,1-1.3,1.15,18.79,18.79,0,0,0-4,4.5,12.87,12.87,0,0,0-2.35,6.9q0,3.9,4.9,8.45,4.6,4.3,7.7,4.3a13.45,13.45,0,0,0,10.4-4.3,14.82,14.82,0,0,0,3.75-10.4A11.76,11.76,0,0,0,622.92,117.3Z"/></g><g id="Layer0_0_STROKES_1_FILL" data-name="Layer0 0 STROKES 1 FILL"><path d="M5.07,202.2a.85.85,0,0,0,.15-.75.94.94,0,0,0-.4-.65,1.12,1.12,0,0,0-.75-.15,1.15,1.15,0,0,0-.65.45q-1.69,2.56-3.25,5a1.07,1.07,0,0,0-.15.75,1.12,1.12,0,0,0,.45.65.89.89,0,0,0,.75.1.89.89,0,0,0,.65-.45q1.54-2.46,3.2-5M11.37,191a1.12,1.12,0,0,0-.7.35q-1.94,2.44-3.75,4.85a1,1,0,0,0-.2.75,1,1,0,0,0,.4.65,1,1,0,0,0,.75.2,1,1,0,0,0,.65-.4q1.79-2.39,3.7-4.8a.84.84,0,0,0,.25-.7,1,1,0,0,0-.4-.7.92.92,0,0,0-.7-.2m7.9-9.1a1,1,0,0,0-.7.3q-2.05,2.29-4,4.55a.94.94,0,0,0-.25.7,1,1,0,0,0,.35.7.93.93,0,0,0,.7.25,1,1,0,0,0,.7-.35q2-2.24,4-4.5a.89.89,0,0,0,.25-.7,1,1,0,0,0-.35-.7.89.89,0,0,0-.7-.25m9-6.9a.93.93,0,0,0,.3-.7.9.9,0,0,0-.3-.7.93.93,0,0,0-.7-.3,1,1,0,0,0-.7.25q-2.16,2.14-4.2,4.25a1,1,0,0,0-.25.7.9.9,0,0,0,.3.7.92.92,0,0,0,.7.3.91.91,0,0,0,.7-.3q2-2.09,4.15-4.2m4.9-4.75.05-.05,4-3.5a1,1,0,0,0,.35-.7.93.93,0,0,0-.25-.7,1,1,0,0,0-.7-.35.94.94,0,0,0-.7.25l-3.95,3.45-.4.3a1,1,0,0,0-.4.65,1,1,0,0,0,.2.75,1,1,0,0,0,.65.4,1,1,0,0,0,.75-.2l.4-.3m13.1-13a1,1,0,0,0-.7-.3,1.05,1.05,0,0,0-.75.25q-2.22,2-4.5,4a1,1,0,0,0-.3.7.89.89,0,0,0,.25.7,1,1,0,0,0,.7.35.89.89,0,0,0,.7-.25q2.28-2,4.5-4a1,1,0,0,0,.35-.7,1.05,1.05,0,0,0-.25-.75m8.85-6.5a1,1,0,0,0,.35-.7,1.05,1.05,0,0,0-.25-.75,1,1,0,0,0-.7-.3,1.05,1.05,0,0,0-.75.25q-2.22,2-4.5,4a1,1,0,0,0-.3.7.89.89,0,0,0,.25.7,1,1,0,0,0,.7.35.89.89,0,0,0,.7-.25q2.27-2,4.5-4M72.22,133a1.06,1.06,0,0,0-.75.25q-2.18,2-4.4,4a1,1,0,0,0-.3.7.89.89,0,0,0,.25.7,1,1,0,0,0,.7.35.89.89,0,0,0,.7-.25q2.23-2,4.4-4a1,1,0,0,0,.35-.7,1.05,1.05,0,0,0-.25-.75,1,1,0,0,0-.7-.3m9.6-7.75a1,1,0,0,0-.7-.3,1.06,1.06,0,0,0-.75.25q-2.17,2-4.45,4a1,1,0,0,0-.3.7.89.89,0,0,0,.25.7,1,1,0,0,0,.7.35.89.89,0,0,0,.7-.25q2.27-2.05,4.45-4a1,1,0,0,0,.35-.7,1.05,1.05,0,0,0-.25-.75m7-7.7v.05q-1.94,1.77-4,3.55a1,1,0,0,0-.3.7.89.89,0,0,0,.25.7,1,1,0,0,0,.7.35.89.89,0,0,0,.7-.25q2-1.81,3.95-3.65h.05l.4-.4a1,1,0,1,0-1.4-1.4,4,4,0,0,1-.4.35m4.9-4.45a1,1,0,0,0-.3.7.89.89,0,0,0,.25.7,1,1,0,0,0,.7.35.89.89,0,0,0,.7-.25l4.5-3.95a1,1,0,0,0,.35-.7.93.93,0,0,0-.25-.7,1,1,0,0,0-.7-.35.94.94,0,0,0-.7.25l-4.55,3.95M63.37,141a1.06,1.06,0,0,0-.75.25q-2.18,2-4.45,4a1,1,0,0,0-.3.7.89.89,0,0,0,.25.7,1,1,0,0,0,.7.35.89.89,0,0,0,.7-.25q2.28-2,4.45-4a1,1,0,0,0,.35-.7,1,1,0,0,0-.25-.75,1,1,0,0,0-.7-.3M239.82,97.8a1.09,1.09,0,0,0,.15.75q2,2.79,3.5,4.75a1,1,0,0,0,.65.4,1,1,0,0,0,.75-.2,1,1,0,0,0,.4-.7.9.9,0,0,0-.2-.7q-1.49-1.94-3.45-4.7A1,1,0,0,0,241,97a1.16,1.16,0,0,0-.75.15,1.21,1.21,0,0,0-.4.65m9.05,8.8a.41.41,0,0,1-.15-.1,1,1,0,1,0-1.4,1.4,2,2,0,0,0,.45.35.84.84,0,0,0,.75.15.79.79,0,0,0,.6-.4.84.84,0,0,0,.15-.75.94.94,0,0,0-.4-.65m-29.3-38.95a.9.9,0,0,0-.65-.35,1.11,1.11,0,0,0-.75.2,1,1,0,0,0-.35.65,1,1,0,0,0,.2.75l3.8,4.8a1,1,0,0,0,.7.4.84.84,0,0,0,.7-.25.88.88,0,0,0,.4-.65,1,1,0,0,0-.25-.75l-3.8-4.8m-11.35-13.2a.92.92,0,0,0-.3-.7q-2-2.15-4.2-4.3a1,1,0,1,0-1.4,1.4q2.14,2.15,4.15,4.3a1,1,0,0,0,.7.3,1,1,0,0,0,.75-.3.9.9,0,0,0,.3-.7m3.85,3.9a.87.87,0,0,0-.65-.35,1.09,1.09,0,0,0-.75.2,1.12,1.12,0,0,0-.35.7,1.07,1.07,0,0,0,.2.75q1.47,1.74,2.85,3.45h0q.36.47.8,1a1,1,0,0,0,.7.4.84.84,0,0,0,.7-.25.88.88,0,0,0,.4-.65,1,1,0,0,0-.25-.75q-.41-.52-.75-1h0q-1.37-1.74-2.85-3.5m20.75,29.5a1.09,1.09,0,0,0,.15.75q1.63,2.28,3.5,5a.92.92,0,0,0,.65.4.82.82,0,0,0,.75-.15.8.8,0,0,0,.4-.65.87.87,0,0,0-.15-.75q-1.88-2.73-3.5-5A1,1,0,0,0,234,87a1.16,1.16,0,0,0-.75.15,1.21,1.21,0,0,0-.4.65m-5.5-10.35a.55.55,0,0,0,0-.15,1,1,0,0,0-.6-.5.93.93,0,0,0-.75.05,1,1,0,0,0-.5.55,1,1,0,0,0,0,.8l.1.2.1.15q1.17,1.42,3.8,5.05a.85.85,0,0,0,.65.35.78.78,0,0,0,.7-.15.86.86,0,0,0,.4-.65.91.91,0,0,0-.15-.75q-2.56-3.51-3.75-5M108,101.1a1,1,0,0,0-.7.2q-2.3,2-4.55,3.85a1.08,1.08,0,0,0-.35.7,1,1,0,0,0,.2.75,1.08,1.08,0,0,0,.7.35.94.94,0,0,0,.75-.25q2.25-1.88,4.55-3.85a1,1,0,0,0,.35-.7.93.93,0,0,0-.25-.7,1,1,0,0,0-.7-.35m28.45-22.45a.92.92,0,0,0-.3-.7.9.9,0,0,0-.7-.3,1,1,0,0,0-.7.25q-2.09,2-4.35,4a1,1,0,0,0-.3.7.89.89,0,0,0,.25.7,1,1,0,0,0,.7.35.89.89,0,0,0,.7-.25q2.29-2,4.4-4.05a.91.91,0,0,0,.3-.7M121,90.5a1,1,0,0,0,.25.75.93.93,0,0,0,.65.35,1,1,0,0,0,.75-.25q2.35-2,4.6-3.95a1,1,0,0,0,.35-.7.93.93,0,0,0-.25-.7,1,1,0,0,0-.7-.35.94.94,0,0,0-.7.25q-2.25,1.95-4.6,3.95a.94.94,0,0,0-.35.65m-4.2,3.1a5.31,5.31,0,0,1-.7.5s0,0-.05.05q-2,1.68-4,3.3a1.12,1.12,0,0,0-.35.7.92.92,0,0,0,.2.7,1,1,0,0,0,.7.4.84.84,0,0,0,.7-.25q2-1.62,4-3.3l0,0a5.31,5.31,0,0,0,.7-.5.81.81,0,0,0,.4-.65.92.92,0,0,0-.15-.75,1.05,1.05,0,0,0-.65-.4,1.17,1.17,0,0,0-.75.15m28.45-23.7a.93.93,0,0,0-.65-.35,1.09,1.09,0,0,0-.75.2q-3.68,3-4.95,4.2a1,1,0,0,0-.3.7,1.08,1.08,0,0,0,.25.75,1,1,0,0,0,.7.3,1,1,0,0,0,.75-.3q1.23-1.16,4.8-4.1a.88.88,0,0,0,.4-.65,1,1,0,0,0-.25-.75m9.85-6.75a.89.89,0,0,0-.2-.7,1,1,0,0,0-.7-.4.9.9,0,0,0-.7.2l-4.8,3.7a1,1,0,0,0-.4.65,1,1,0,0,0,.2.75,1,1,0,0,0,.65.4,1,1,0,0,0,.75-.2l4.8-3.7a1,1,0,0,0,.4-.7m7.9-8.4q-2,1.68-4.6,3.65a1,1,0,0,0-.35.65,1,1,0,0,0,.2.75,1,1,0,0,0,.65.4.93.93,0,0,0,.75-.25q2.58-2,4.6-3.65a.88.88,0,0,0,.4-.65,1,1,0,0,0-.25-.75.93.93,0,0,0-.65-.35,1.09,1.09,0,0,0-.75.2m9-7.1a1,1,0,0,0-.75-.2,1,1,0,0,0-.65.35,23.88,23.88,0,0,1-3.15,3.15.94.94,0,0,0-.35.65,1,1,0,0,0,.25.75.93.93,0,0,0,.65.35,1,1,0,0,0,.75-.25,27.3,27.3,0,0,0,3.45-3.4,1,1,0,0,0,.2-.75,1,1,0,0,0-.4-.65m332,115.1a1,1,0,0,0,.25.7q1.7,1.86,3.15,3.65V167l.6.8a1,1,0,0,0,.65.4,1,1,0,0,0,.75-.2,1,1,0,0,0,.4-.65,1,1,0,0,0-.2-.75l-.6-.8,0-.05q-1.5-1.81-3.25-3.7a.88.88,0,0,0-.65-.3,1.13,1.13,0,0,0-.75.25,1.06,1.06,0,0,0-.3.7m-2.35-4.4a1,1,0,0,0-.3-.7l-1.75-1.75q-1-1-2.2-2.3a.89.89,0,0,0-.65-.3,1.13,1.13,0,0,0-.75.25,1.06,1.06,0,0,0-.3.7,1,1,0,0,0,.25.7q1.24,1.34,2.25,2.35L500,159a1,1,0,0,0,1.7-.7m16.15,17.85a.92.92,0,0,0-.3-.7q-2-2.14-4-4.45a1,1,0,0,0-.7-.3,1.05,1.05,0,0,0-.75.25,1,1,0,0,0-.3.7.89.89,0,0,0,.25.7q2.06,2.34,4.1,4.5a1,1,0,0,0,.7.3,1,1,0,0,0,.75-.3.9.9,0,0,0,.3-.7m3.3,3.3a1,1,0,0,0-.7.3,1,1,0,0,0-.25.75,1,1,0,0,0,.3.7q1.06.94,2,1.85v.05q1.14,1,2.15,1.85a.94.94,0,0,0,.7.25,1,1,0,0,0,.7-.35,1,1,0,0,0,.25-.75.94.94,0,0,0-.35-.65q-1-.84-2-1.85h0q-1-.95-2-1.9a.89.89,0,0,0-.7-.25m32.5,1.75a1,1,0,0,0-.75-.2,1,1,0,0,0-.65.35q-1.12,1.46-2.2,2.7h.05l-1.65,1.9a1.07,1.07,0,0,0-.2.75.87.87,0,0,0,.35.65,1,1,0,0,0,.75.25.87.87,0,0,0,.65-.35l1.6-1.9h0q1.07-1.26,2.2-2.75a.92.92,0,0,0,.25-.75,1,1,0,0,0-.4-.65m7.75-8a1,1,0,0,0,.25-.75.93.93,0,0,0-.35-.65,1,1,0,0,0-.75-.25.94.94,0,0,0-.65.35q-1.48,1.66-2.75,3.25h0q-.58.77-1.2,1.5a1.09,1.09,0,0,0-.2.75.93.93,0,0,0,.35.65,1,1,0,0,0,.75.25.88.88,0,0,0,.65-.4q.62-.73,1.2-1.5h0q1.23-1.56,2.65-3.2m7.7-10.45a1,1,0,0,0-.7.25q-2.31,2.24-4.4,4.35a1,1,0,0,0-.25.7.93.93,0,0,0,.3.7.9.9,0,0,0,.7.3.93.93,0,0,0,.7-.3q2.06-2.09,4.35-4.3a.91.91,0,0,0,.3-.7.92.92,0,0,0-.3-.7.9.9,0,0,0-.7-.3m9.3-6.5a.93.93,0,0,0,.3-.7.9.9,0,0,0-.3-.7.93.93,0,0,0-.7-.3,1,1,0,0,0-.7.25q-2.25,2.22-4.3,4.15a1,1,0,0,0-.3.7,1.08,1.08,0,0,0,.25.75,1,1,0,0,0,.7.3,1,1,0,0,0,.75-.3q2-1.92,4.3-4.15M417.62,62.85a1,1,0,1,0-1.4,1.4q2.14,2.15,4.2,4.3a1.1,1.1,0,0,0,.75.3.9.9,0,0,0,.7-.3.93.93,0,0,0,.3-.7.9.9,0,0,0-.3-.7q-2.09-2.15-4.25-4.3m-3.9-3.6a.9.9,0,0,0-.3-.7q-2.09-2.15-4.25-4.3a1,1,0,1,0-1.4,1.4q2.14,2.15,4.2,4.3a1.1,1.1,0,0,0,.75.3.9.9,0,0,0,.7-.3.93.93,0,0,0,.3-.7m-145.15,49a1,1,0,1,0,1.4,1.4q1.85-1.84,4.25-4.15a.91.91,0,0,0,.3-.7.92.92,0,0,0-.3-.7.9.9,0,0,0-.7-.3,1,1,0,0,0-.7.25q-2.4,2.34-4.25,4.2M300,80a.92.92,0,0,0-.3-.7.9.9,0,0,0-.7-.3,1,1,0,0,0-.7.25L294,83.3a1.1,1.1,0,0,0-.3.75,1,1,0,0,0,.25.7,1.1,1.1,0,0,0,.75.3.9.9,0,0,0,.7-.3l4.25-4.1a.91.91,0,0,0,.3-.7M285.47,93a1.1,1.1,0,0,0,.75.3.9.9,0,0,0,.7-.3q2.05-2,4.25-4.15a.93.93,0,0,0,.3-.7.9.9,0,0,0-.3-.7.93.93,0,0,0-.7-.3,1,1,0,0,0-.7.25q-2.2,2.17-4.25,4.15a1.1,1.1,0,0,0-.3.75,1,1,0,0,0,.25.7M283,96.45a.9.9,0,0,0-.3-.7.93.93,0,0,0-.7-.3,1,1,0,0,0-.7.25q-2.25,2.22-4.25,4.15a1.1,1.1,0,0,0-.3.75,1,1,0,0,0,.25.7,1.1,1.1,0,0,0,.75.3.9.9,0,0,0,.7-.3q2-1.92,4.25-4.15a.93.93,0,0,0,.3-.7m25.4-24.7a.92.92,0,0,0-.3-.7.9.9,0,0,0-.7-.3,1,1,0,0,0-.7.25l-4.25,4.1a1.1,1.1,0,0,0-.3.75,1,1,0,0,0,.25.7,1.1,1.1,0,0,0,.75.3.9.9,0,0,0,.7-.3l4.25-4.1a.91.91,0,0,0,.3-.7m8.8-8.1a1,1,0,1,0-1.4-1.4q-2.14,2.14-4.45,4.25a1.1,1.1,0,0,0-.3.7.93.93,0,0,0,.25.7,1,1,0,0,0,.7.35.86.86,0,0,0,.7-.3q2.34-2.14,4.5-4.3m2.7-5a1,1,0,0,0,.25.7,1.1,1.1,0,0,0,.75.3.9.9,0,0,0,.7-.3l4.3-4.15a.91.91,0,0,0,.3-.7.92.92,0,0,0-.3-.7.9.9,0,0,0-.7-.3,1,1,0,0,0-.7.25l-4.3,4.15a1.1,1.1,0,0,0-.3.75m14-13.6a1,1,0,0,0-.7.25q-2.1,2.07-4.35,4.25a1.1,1.1,0,0,0-.3.75,1,1,0,0,0,.25.7,1.1,1.1,0,0,0,.75.3.9.9,0,0,0,.7-.3q2.25-2.18,4.35-4.25a.93.93,0,0,0,.3-.7.9.9,0,0,0-.3-.7.93.93,0,0,0-.7-.3m3.4-3.25a1,1,0,0,0,.25.7,1.1,1.1,0,0,0,.75.3.9.9,0,0,0,.7-.3q2.35-2.29,4.4-4.35a1,1,0,1,0-1.4-1.4q-2.05,2-4.4,4.3a1.1,1.1,0,0,0-.3.75m61.7,4.5a1,1,0,0,0,.25.7q2.13,2.15,4.2,4.3a1.1,1.1,0,0,0,.75.3.9.9,0,0,0,.7-.3.93.93,0,0,0,.3-.7.9.9,0,0,0-.3-.7q-2.07-2.15-4.2-4.3a.93.93,0,0,0-.7-.3,1,1,0,0,0-.7.25,1.1,1.1,0,0,0-.3.75m-6.65-9.25a.91.91,0,0,0-.7-.3.94.94,0,0,0-1,1,1.08,1.08,0,0,0,.25.75q2,2.1,4.2,4.4a1,1,0,0,0,.7.3,1,1,0,0,0,.75-.3.9.9,0,0,0,.3-.7.92.92,0,0,0-.3-.7q-2.18-2.3-4.2-4.4m-8.9-9.2a1,1,0,0,0-1,.9,1,1,0,0,0,.25.75q1.91,2.16,4.1,4.5a1,1,0,0,0,.7.35.85.85,0,0,0,.7-.3.89.89,0,0,0,.35-.7,1,1,0,0,0-.3-.7q-2.16-2.31-4-4.45a1,1,0,0,0-.7-.35m-31.25,1.6a1,1,0,1,0-1.4-1.4q-2,1.94-4.45,4.35a1.11,1.11,0,0,0-.3.75,1,1,0,0,0,.25.7,1.1,1.1,0,0,0,.75.3.9.9,0,0,0,.7-.3q2.5-2.44,4.45-4.4M586.87,146a1,1,0,0,0-.75-.2,1,1,0,0,0-.65.4q-.11.15-.25.3-2,2.15-4,4.1a1,1,0,1,0,1.4,1.4q2-1.95,4-4.1a.46.46,0,0,0,.1-.1l.3-.4a1,1,0,0,0,.2-.75,1,1,0,0,0-.4-.65m-97.25-1.4a.88.88,0,0,0-.65-.35,1.07,1.07,0,0,0-.75.2,1,1,0,0,0-.35.7,1.07,1.07,0,0,0,.2.75l3.85,4.5a.94.94,0,0,0,.65.35,1,1,0,0,0,.75-.25,1,1,0,0,0,.35-.7.94.94,0,0,0-.25-.7l-3.8-4.5m-7.55-9.1a.93.93,0,0,0-.65-.35,1.09,1.09,0,0,0-.75.2,1.12,1.12,0,0,0-.35.7.93.93,0,0,0,.2.7l3.75,4.6a1,1,0,0,0,.7.35,1,1,0,0,0,.75-.25.87.87,0,0,0,.35-.65,1,1,0,0,0-.25-.75q-1.78-2.14-3.75-4.55m-7.7-9.65a.93.93,0,0,0-.65-.35,1.09,1.09,0,0,0-.75.2,1.12,1.12,0,0,0-.35.7.92.92,0,0,0,.2.7q1.78,2.18,3.75,4.7a1,1,0,0,0,.65.4A.92.92,0,0,0,478,132a.85.85,0,0,0,.4-.65,1,1,0,0,0-.25-.75q-2-2.53-3.75-4.7m-9.5-9.15a.93.93,0,0,0,.2.7q1.53,1.88,3.95,4.9a1,1,0,0,0,.7.4.84.84,0,0,0,.7-.25.88.88,0,0,0,.4-.65,1,1,0,0,0-.25-.75q-2.43-3-4-4.9a.93.93,0,0,0-.65-.35,1.09,1.09,0,0,0-.75.2,1.12,1.12,0,0,0-.35.7m-8.15-9.4a1,1,0,0,0,.25.75q2.1,2.46,4,4.55a1,1,0,0,0,.7.35.89.89,0,0,0,.7-.25,1,1,0,0,0,.35-.7,1.05,1.05,0,0,0-.25-.75q-1.9-2.06-4-4.5a1,1,0,0,0-.7-.35,1,1,0,0,0-1,.9m-5.5-9h0l-.4-.5a.93.93,0,0,0-.65-.35,1.09,1.09,0,0,0-.75.2,1.12,1.12,0,0,0-.35.7.92.92,0,0,0,.2.7l.4.5,0,.05q1.75,2.05,3.4,3.95a.94.94,0,0,0,.65.35,1,1,0,0,0,.75-.25,1,1,0,0,0,.35-.7.94.94,0,0,0-.25-.7q-1.64-1.89-3.4-3.95m-8.6-9.75a.91.91,0,0,0-.7-.3.94.94,0,0,0-1,.95,1.08,1.08,0,0,0,.25.75q1.91,2,4.15,4.5a.94.94,0,0,0,.65.35,1,1,0,0,0,.75-.25,1,1,0,0,0,.35-.7.94.94,0,0,0-.25-.7q-2.26-2.58-4.2-4.6m-10-7.95a1.08,1.08,0,0,0,.25.75l4.1,4.25a1.1,1.1,0,0,0,.75.3.9.9,0,0,0,.7-.3.93.93,0,0,0,.3-.7.9.9,0,0,0-.3-.7L434.37,80a.91.91,0,0,0-.7-.3.94.94,0,0,0-1,.95m-2.15-4.2a.92.92,0,0,0-.3-.7q-2-2.15-4.15-4.3a.93.93,0,0,0-.7-.3,1,1,0,0,0-.7.25,1.1,1.1,0,0,0-.3.75,1,1,0,0,0,.25.7q2.12,2.15,4.15,4.3a1,1,0,0,0,.7.3,1,1,0,0,0,.75-.3.9.9,0,0,0,.3-.7M644.47,151a.91.91,0,0,0-.7-.3.94.94,0,0,0-1,1,1.08,1.08,0,0,0,.25.75q2.32,2.4,4.1,4.3a1,1,0,0,0,.7.3.85.85,0,0,0,.7-.3.89.89,0,0,0,.35-.7.92.92,0,0,0-.3-.7q-1.77-1.9-4.1-4.3m10.15,12.3a.87.87,0,0,0,.35-.65,1,1,0,0,0-.25-.75q-.49-.6-2.15-2.35a1,1,0,0,0-.7-.3,1,1,0,0,0-.7.25,1.09,1.09,0,0,0-.3.7.93.93,0,0,0,.25.7q1.59,1.7,2,2.3a1,1,0,0,0,.7.35,1,1,0,0,0,.75-.25m23.2,1.15a.85.85,0,0,0,.45-.6.82.82,0,0,0-.1-.75,1,1,0,0,0-.6-.5,1.3,1.3,0,0,0-.45,0,1.27,1.27,0,0,0-.1-.45,1,1,0,0,0-.55-.5,1.14,1.14,0,0,0-.8,0,1,1,0,0,0-.5.55q-.72,2,.2,2.45.62.83,2.45-.25m7.9-9.5a1.11,1.11,0,0,0-.75.3q-2.41,2.49-4.1,4.1a1,1,0,0,0-.3.7,1.08,1.08,0,0,0,.25.75,1,1,0,0,0,.7.3,1,1,0,0,0,.75-.3q1.71-1.64,4.15-4.15a.9.9,0,0,0,.3-.7,1.1,1.1,0,0,0-.3-.75,1,1,0,0,0-.7-.25m8.75-6.75a.86.86,0,0,0,.3-.7,1,1,0,0,0-.35-.7.93.93,0,0,0-.7-.25,1.1,1.1,0,0,0-.7.3q-2.12,2.31-4,4.25a1,1,0,0,0-.25.7,1,1,0,0,0,.3.7.94.94,0,0,0,.7.3.91.91,0,0,0,.7-.3q1.87-2,4-4.3m25.45-23.95a.91.91,0,0,0,.3-.7.92.92,0,0,0-.3-.7.9.9,0,0,0-.7-.3,1,1,0,0,0-.7.25q-2.19,2.12-4.3,4.05a1.1,1.1,0,0,0-.3.7.93.93,0,0,0,.25.7,1,1,0,0,0,.7.35.86.86,0,0,0,.7-.3q2.14-1.92,4.35-4.05m7.9-9.9a1,1,0,0,0-.7.25q-2.2,2.13-4.3,4.1a1,1,0,0,0-.3.7,1.07,1.07,0,0,0,.25.75,1,1,0,0,0,.7.3,1,1,0,0,0,.75-.3q2.1-2,4.3-4.1a.91.91,0,0,0,.3-.7.92.92,0,0,0-.3-.7.9.9,0,0,0-.7-.3m9.3-6.5a.91.91,0,0,0,.3-.7.92.92,0,0,0-.3-.7.9.9,0,0,0-.7-.3,1,1,0,0,0-.7.25q-2.2,2.13-4.3,4.1a1,1,0,0,0-.3.7,1.08,1.08,0,0,0,.25.75,1,1,0,0,0,.7.3,1,1,0,0,0,.75-.3q2.1-2,4.3-4.1m7.8-9.9a1,1,0,0,0-.7.25q-2.15,2.12-4.25,4.1a1,1,0,0,0-.3.7,1.08,1.08,0,0,0,.25.75,1,1,0,0,0,.7.3,1,1,0,0,0,.75-.3q2.1-2,4.25-4.1a.93.93,0,0,0,.3-.7.9.9,0,0,0-.3-.7.93.93,0,0,0-.7-.3m-47.7,47a.89.89,0,0,0,.7-.25q2.18-2,4.55-4.2a.82.82,0,0,0,.35-.65,1,1,0,0,0-.3-.75.88.88,0,0,0-.65-.3,1.14,1.14,0,0,0-.75.25q-2.37,2.21-4.55,4.15a1,1,0,0,0-.3.7.89.89,0,0,0,.25.7,1,1,0,0,0,.7.35m13.35-14.2a1,1,0,0,0-.7.25q-2.23,2.11-4.4,4.05a1,1,0,0,0-.3.7.89.89,0,0,0,.25.7,1,1,0,0,0,.7.35.89.89,0,0,0,.7-.25q2.17-2,4.4-4.1a.9.9,0,0,0,.35-.7,1,1,0,0,0-.3-.7,1,1,0,0,0-.7-.3m-76,12.1a1,1,0,0,0,.25.75q1.91,2.16,4,4.45a1,1,0,0,0,.7.35.85.85,0,0,0,.7-.3.89.89,0,0,0,.35-.7,1,1,0,0,0-.3-.7q-2.11-2.26-4-4.4a1,1,0,0,0-.7-.35,1,1,0,0,0-1,.9m-7.65-8.6q1.71,2.22,3.85,4.8a1.08,1.08,0,0,0,.7.35,1,1,0,0,0,1.1-.95.88.88,0,0,0-.25-.7q-2.11-2.52-3.8-4.7a1,1,0,0,0-.7-.4.89.89,0,0,0-.7.2,1,1,0,0,0-.4.65,1,1,0,0,0,.2.75m-32,4.75a1,1,0,0,0,.25-.75.93.93,0,0,0-.35-.65,1,1,0,0,0-.75-.25.94.94,0,0,0-.65.35q-1.49,1.74-3.9,4.25a1,1,0,0,0-.25.7,1,1,0,0,0,.3.7,1,1,0,0,0,.7.3.9.9,0,0,0,.7-.35q2.44-2.54,4-4.3m159-48.65a.9.9,0,0,0-.7-.3,1,1,0,0,0-.7.25q-2.15,2.07-4.25,4.05a1,1,0,0,0-.3.7,1.08,1.08,0,0,0,.25.75,1,1,0,0,0,.7.3,1,1,0,0,0,.75-.3q2.1-2,4.25-4.05a.91.91,0,0,0,.3-.7.92.92,0,0,0-.3-.7m8-8.5a1,1,0,0,0-.7.25q-2.2,2.13-4.35,4.15a1,1,0,0,0-.3.7,1.08,1.08,0,0,0,.25.75,1,1,0,0,0,.7.3,1,1,0,0,0,.75-.3q2.15-2,4.35-4.15a.91.91,0,0,0,.3-.7.92.92,0,0,0-.3-.7.9.9,0,0,0-.7-.3m9.4-6.4a1,1,0,0,0,.35-.7,1,1,0,0,0-.25-.75,1,1,0,0,0-.7-.3,1.06,1.06,0,0,0-.75.25l-4.4,4a1.1,1.1,0,0,0-.3.7.93.93,0,0,0,.25.7,1,1,0,0,0,.7.35.85.85,0,0,0,.7-.3l4.4-4m3.7-3.8a.85.85,0,0,0,.7-.3l4.4-4a1,1,0,0,0,.35-.7,1,1,0,0,0-.25-.75,1,1,0,0,0-.7-.3,1.06,1.06,0,0,0-.75.25l-4.4,4.05a1.1,1.1,0,0,0-.3.7.93.93,0,0,0,.25.7,1,1,0,0,0,.7.35m13.3-14.1a1.05,1.05,0,0,0-.75.25q-2.23,2-4.45,4.05a1,1,0,0,0-.3.7.89.89,0,0,0,.25.7,1,1,0,0,0,.7.35.89.89,0,0,0,.7-.25q2.23-2,4.45-4.05a1,1,0,0,0,.35-.7,1,1,0,0,0-.25-.75,1,1,0,0,0-.7-.3m8.9-8a1.05,1.05,0,0,0-.75.25l-4.45,4a1,1,0,0,0-.3.7.89.89,0,0,0,.25.7,1,1,0,0,0,.7.35.89.89,0,0,0,.7-.25l4.45-4a1,1,0,0,0,.35-.7,1.05,1.05,0,0,0-.25-.75,1,1,0,0,0-.7-.3M824.87,25.4a1,1,0,0,0-.7-.3,1,1,0,0,0-.7.25q-2.18,2.07-4.45,4.15a1.1,1.1,0,0,0-.3.7.93.93,0,0,0,.25.7,1,1,0,0,0,.7.35.86.86,0,0,0,.7-.3q2.27-2.07,4.45-4.15a.9.9,0,0,0,.35-.7,1,1,0,0,0-.3-.7m-14.7,12.1a1,1,0,0,0-.3.7.89.89,0,0,0,.25.7,1,1,0,0,0,.7.35.89.89,0,0,0,.7-.25q2.28-2,4.4-4a1,1,0,0,0,.35-.7,1,1,0,0,0-.25-.75,1,1,0,0,0-.7-.3,1.05,1.05,0,0,0-.75.25q-2.12,1.95-4.4,4m-9.3,8.35a.94.94,0,0,0-.35.65,1,1,0,0,0,.25.75.93.93,0,0,0,.65.35,1,1,0,0,0,.75-.25q2.51-2.2,5-4.4a1,1,0,0,0,.35-.7,1,1,0,0,0-.25-.75,1,1,0,0,0-.7-.3,1.05,1.05,0,0,0-.75.25q-2.41,2.2-4.9,4.4M832.32,17q-2.14,2.08-4.4,4.15a1.1,1.1,0,0,0-.3.7.93.93,0,0,0,.25.7,1,1,0,0,0,.7.35.86.86,0,0,0,.7-.3q2.29-2.08,4.45-4.15a.91.91,0,0,0,.3-.7.92.92,0,0,0-.3-.7.9.9,0,0,0-.7-.3,1,1,0,0,0-.7.25m9.5-8.6a1,1,0,0,0-.7.25q-2.15,2.08-4.4,4.2a1,1,0,0,0-.3.7,1.08,1.08,0,0,0,.25.75,1,1,0,0,0,.7.3,1,1,0,0,0,.75-.3q2.25-2.12,4.4-4.2a.91.91,0,0,0,.3-.7.92.92,0,0,0-.3-.7.9.9,0,0,0-.7-.3m9.3-6.75a1,1,0,0,0,.3-.7,1,1,0,0,0-.3-.7,1,1,0,0,0-1.4,0q-2.1,2.09-4.3,4.2a1.1,1.1,0,0,0-.3.75,1,1,0,0,0,.25.7,1.1,1.1,0,0,0,.75.3.9.9,0,0,0,.7-.3Q849,3.81,851.12,1.7Z"/></g></svg>
