<?xml version="1.0" standalone="no"?>
<!DOCTYPE svg PUBLIC "-//W3C//DTD SVG 20010904//EN"
 "http://www.w3.org/TR/2001/REC-SVG-20010904/DTD/svg10.dtd">
<svg version="1.0" xmlns="http://www.w3.org/2000/svg"
 width="2283.000000pt" height="665.000000pt" viewBox="0 0 2283.000000 665.000000"
 preserveAspectRatio="xMidYMid meet">
<metadata>
Created by potrace 1.15, written by Peter Selinger 2001-2017
</metadata>
<g transform="translate(0.000000,665.000000) scale(0.100000,-0.100000)"
fill="white" stroke="none">
<path d="M4616 6358 c-762 -1537 -1455 -2319 -2146 -2424 -120 -18 -190 -18
-313 1 -260 39 -537 179 -836 422 -139 113 -525 500 -726 728 -87 99 -164 186
-171 194 -26 29 -26 1 1 -126 156 -746 642 -1423 1234 -1719 378 -189 803
-214 1157 -70 649 264 1263 1192 1761 2661 78 233 195 616 189 622 -2 3 -70
-127 -150 -289z"/>
<path d="M2273 5280 c-254 -45 -423 -247 -423 -504 0 -208 102 -374 283 -462
200 -96 436 -56 591 101 152 155 189 401 90 597 -31 62 -119 156 -183 197 -95
61 -246 90 -358 71z"/>
<path d="M7975 4679 c-92 -23 -181 -110 -206 -203 -16 -58 -6 -163 19 -213 66
-129 218 -191 358 -147 83 25 163 105 188 188 44 141 -19 289 -152 355 -50 25
-149 35 -207 20z"/>
<path d="M10625 4677 c-67 -23 -101 -44 -144 -93 -125 -142 -77 -365 99 -455
62 -32 185 -33 251 -3 55 26 111 79 141 137 32 60 33 203 1 262 -28 53 -86
110 -138 135 -54 26 -157 34 -210 17z"/>
<path d="M21251 4665 c-59 -14 -100 -30 -108 -41 -10 -14 -13 -105 -13 -430
l0 -413 -74 35 c-113 52 -191 66 -326 62 -131 -5 -199 -25 -287 -83 -150 -100
-243 -256 -294 -496 -19 -88 -23 -134 -23 -304 0 -283 32 -444 120 -616 69
-135 160 -217 286 -260 54 -18 79 -20 178 -16 146 5 220 32 373 134 60 40 111
72 112 71 1 -2 11 -30 24 -63 30 -82 66 -135 92 -135 34 0 209 102 209 122 0
10 -16 47 -36 83 -74 134 -68 39 -74 1265 l-5 1105 -30 2 c-16 1 -72 -9 -124
-22z m-299 -1053 c31 -11 83 -33 115 -49 l58 -30 3 -493 c3 -559 12 -498 -88
-575 -106 -81 -197 -117 -301 -117 -157 0 -247 93 -294 303 -22 99 -32 471
-16 592 30 223 108 344 248 383 66 19 202 12 275 -14z"/>
<path d="M15770 4599 c-326 -30 -551 -233 -669 -603 -109 -340 -115 -916 -14
-1265 93 -325 266 -519 533 -603 67 -21 94 -23 255 -23 191 0 275 13 413 59
79 27 163 69 180 89 9 11 12 149 10 563 l-3 549 -305 0 -305 0 0 -120 0 -120
158 -3 157 -3 0 -358 0 -359 -57 -21 c-118 -43 -220 -51 -338 -26 -240 51
-368 234 -425 608 -34 219 -31 641 5 849 64 366 234 548 510 548 125 0 244
-42 393 -136 79 -51 85 -48 137 56 25 49 45 98 45 109 0 63 -277 189 -452 206
-127 12 -145 12 -228 4z"/>
<path d="M5844 4536 c-22 -35 -17 -302 6 -316 8 -5 66 -10 128 -10 l112 0 0
-860 0 -860 -112 0 c-62 0 -120 -5 -128 -10 -12 -7 -16 -39 -18 -154 -3 -136
-2 -146 17 -165 21 -21 22 -21 776 -19 486 2 758 7 764 13 9 9 141 582 141
612 0 21 -32 31 -183 63 -168 35 -193 36 -206 13 -5 -10 -24 -84 -42 -165
l-32 -148 -254 0 -253 0 0 840 0 840 119 0 c95 0 123 3 135 16 23 23 23 279 0
312 l-15 22 -469 0 -470 0 -16 -24z"/>
<path d="M14380 3930 c-16 -17 -41 -55 -55 -85 l-27 -54 -46 36 c-123 94 -273
132 -446 113 -150 -18 -253 -68 -355 -176 -164 -172 -242 -451 -228 -819 12
-303 83 -504 230 -643 101 -95 208 -132 383 -132 133 0 234 23 332 75 37 19
70 35 75 35 5 0 7 -72 5 -162 -5 -184 -16 -227 -74 -277 -45 -40 -90 -51 -211
-51 -153 0 -309 36 -487 111 -104 44 -100 48 -160 -157 -41 -139 -43 -155 -18
-178 42 -37 250 -100 437 -132 143 -25 394 -25 500 0 234 54 372 183 432 406
16 59 18 104 13 460 -3 217 -4 577 -4 800 2 445 2 448 70 633 21 57 26 81 19
93 -10 15 -263 115 -328 130 -22 5 -33 0 -57 -26z m-316 -375 c32 -8 82 -31
112 -51 l54 -36 0 -413 0 -413 -31 -27 c-66 -55 -128 -78 -221 -83 -75 -4 -93
-1 -133 18 -48 23 -95 77 -121 140 -43 100 -63 317 -45 483 21 191 71 303 158
354 76 44 135 52 227 28z"/>
<path d="M12334 3939 c-126 -15 -251 -74 -371 -175 -28 -24 -54 -44 -57 -44
-3 0 -12 22 -20 49 -17 57 -34 93 -50 103 -6 4 -140 8 -297 8 -252 0 -288 -2
-293 -16 -12 -31 -7 -279 7 -297 9 -13 33 -17 112 -19 l100 -3 13 -55 c11 -42
16 -171 19 -532 l5 -478 -104 0 c-68 0 -108 -4 -116 -12 -17 -17 -17 -299 0
-316 16 -16 849 -17 879 -2 17 10 19 23 19 158 0 102 -4 152 -12 160 -8 8 -48
12 -115 12 l-103 0 0 474 0 474 48 41 c74 64 145 95 228 99 127 7 183 -44 204
-183 5 -41 10 -314 10 -647 0 -560 1 -578 19 -588 27 -14 615 -14 642 0 17 10
19 23 19 158 0 102 -4 152 -12 160 -8 8 -48 12 -115 12 l-103 0 0 519 c0 415
-3 535 -15 596 -40 212 -154 321 -361 345 -49 5 -93 9 -99 9 -5 -1 -42 -5 -81
-10z"/>
<path d="M7556 3864 c-10 -27 -7 -274 4 -295 10 -17 22 -19 140 -19 l130 0 0
-535 0 -535 -130 0 c-118 0 -130 -2 -140 -19 -5 -11 -10 -80 -10 -155 0 -109
3 -138 16 -150 14 -14 71 -16 485 -16 305 0 477 4 490 10 17 10 19 23 19 158
0 102 -4 152 -12 160 -8 8 -54 12 -140 12 l-128 0 -2 698 -3 697 -356 3 c-319
2 -357 1 -363 -14z"/>
<path d="M8394 3867 c-2 -7 -3 -80 -2 -162 l3 -150 79 -5 79 -5 249 -719 c137
-396 253 -725 259 -733 9 -10 56 -13 204 -13 l193 0 15 43 c132 380 487 1396
492 1410 6 14 20 17 79 17 43 0 77 5 84 12 13 13 18 271 6 302 -5 14 -36 16
-244 16 -132 0 -241 -4 -244 -9 -7 -11 -258 -834 -286 -936 -11 -43 -34 -137
-50 -208 -16 -71 -31 -131 -33 -133 -2 -2 -10 29 -17 68 -22 124 -106 447
-218 838 l-107 375 -268 3 c-213 2 -269 0 -273 -11z"/>
<path d="M10214 3867 c-2 -7 -3 -80 -2 -162 l3 -150 133 -3 132 -3 0 -534 0
-535 -119 0 c-66 0 -126 -3 -135 -6 -24 -9 -24 -319 0 -328 20 -8 948 -8 968
0 24 9 24 319 0 328 -9 3 -69 6 -135 6 l-119 0 0 678 c0 372 -3 687 -6 700
l-6 22 -354 0 c-281 0 -356 -3 -360 -13z"/>
<path d="M17325 3860 c-93 -24 -137 -44 -205 -90 -146 -99 -246 -267 -296
-500 -27 -121 -27 -457 0 -580 85 -392 305 -590 655 -590 136 0 225 20 331 71
199 98 335 310 381 594 18 116 16 379 -5 495 -21 117 -63 242 -107 318 -47 79
-161 191 -236 230 -137 72 -360 94 -518 52z m343 -245 c104 -56 174 -162 215
-323 19 -77 22 -112 21 -297 0 -178 -4 -224 -22 -303 -39 -171 -111 -280 -217
-332 -44 -22 -63 -25 -160 -25 -101 0 -114 2 -163 28 -114 60 -184 173 -223
357 -17 84 -22 140 -22 280 0 100 5 202 12 238 42 219 126 341 269 395 36 13
70 17 142 14 83 -2 102 -6 148 -32z"/>
<path d="M18982 3860 c-187 -50 -326 -166 -411 -343 -77 -158 -111 -323 -111
-537 0 -475 186 -788 514 -865 91 -22 266 -19 360 5 206 52 363 191 450 397
103 245 113 644 21 912 -39 115 -84 190 -165 272 -76 77 -132 113 -240 152
-84 30 -318 34 -418 7z m343 -242 c64 -33 139 -113 171 -182 48 -106 66 -199
71 -381 12 -382 -66 -609 -235 -692 -51 -25 -67 -28 -162 -28 -133 0 -186 21
-264 106 -101 108 -147 287 -148 564 0 367 87 556 290 632 25 9 69 12 132 10
79 -3 104 -8 145 -29z"/>
<path d="M22150 3865 c-153 -42 -261 -129 -327 -261 l-38 -78 0 -130 c0 -125
1 -134 29 -189 62 -121 158 -195 432 -329 263 -129 315 -185 301 -326 -15
-148 -141 -235 -318 -218 -84 7 -211 44 -318 91 -46 20 -88 34 -95 32 -16 -6
-86 -167 -86 -197 0 -16 17 -29 83 -60 130 -62 249 -90 408 -97 215 -9 352 32
465 139 103 97 144 199 144 357 0 116 -16 178 -65 246 -55 79 -143 138 -380
255 -188 92 -228 116 -267 158 -90 96 -92 230 -4 318 94 95 268 97 471 5 37
-17 76 -31 87 -31 14 0 29 22 59 87 22 48 39 96 37 107 -4 26 -104 77 -213
107 -104 29 -322 37 -405 14z"/>
<path d="M2320 2949 c-133 -15 -292 -50 -430 -95 -563 -184 -1017 -602 -1425
-1314 -146 -254 -473 -941 -463 -972 2 -6 60 52 128 128 739 821 1345 1335
1810 1532 568 242 980 77 1404 -563 145 -219 244 -393 568 -1010 230 -436 350
-655 361 -655 10 0 9 228 -3 405 -75 1114 -434 1980 -971 2342 -152 103 -318
170 -489 198 -103 16 -361 19 -490 4z"/>
</g>
</svg>
