<svg id="Capa_1" data-name="Capa 1" xmlns="http://www.w3.org/2000/svg" viewBox="0 0 993.65 141.02"><defs><style>.cls-1,.cls-2{fill:#1a171b}.cls-1{fill-rule:evenodd}</style></defs><title>AE_white bck</title><path class="cls-1" d="M65.3 258.21c2.57-6.41 9.71-14.84 24.37-14.84 11.35 0 19.6 4.76 19.6 17.4v5.13C66.95 273.42 51 283.86 51 304.74c0 17.4 12.46 26.19 27.11 26.19 14.29 0 24.91-7.69 31.51-15l1.46 13.19h13.56c-1.28-4.94-2.2-10.07-2.2-20.52v-48c0-20.89-16.86-28.58-33-28.58-18 0-29.68 9.16-35.72 20.15zm44 45.61c-7.69 8.79-19.78 15.75-29.31 15.75-7.33 0-15.75-5.86-15.75-14.66 0-13.19 14.84-22 45.06-27.29zM136.37 233.85v95.25h13.19v-71.26c6-6.41 17.4-14.47 27.3-14.47 9.52 0 15.57 4.21 15.57 16.85v68.88h13.19v-69.24c0-20.51-13.37-27.84-27.48-27.84-10.81 0-20.7 6.23-28.21 14.65h-.37v-12.82zM221.5 329.1h13.19v-95.25H221.5zm0-134.08v15.75h13.19V195zM261.92 329.1V258c7.14-7 14.84-14.65 26.56-14.65 8.43 0 14.84 4.76 14.84 17.59v68.16h13.18V258c7.14-7 14.84-14.65 26.56-14.65 8.43 0 14.84 4.76 14.84 17.59v68.16h13.19V261c0-23.63-13.56-28.94-26.19-28.94-11.17 0-21.8 6-30.22 15-3.48-8.79-12.09-15-24.36-15-9.16 0-19.6 4.76-27.66 13.74l-.73.73v-12.68h-13.2v95.25zM393.38 258.21c2.57-6.41 9.71-14.84 24.37-14.84 11.36 0 19.6 4.76 19.6 17.4v5.13c-42.31 7.51-58.25 18-58.25 38.83 0 17.4 12.45 26.19 27.11 26.19 14.29 0 24.91-7.69 31.51-15l1.46 13.19h13.56c-1.28-4.94-2.2-10.07-2.2-20.52v-48c0-20.88-16.85-28.58-33-28.58-17.95 0-29.67 9.16-35.72 20.15zm44 45.61c-7.7 8.79-19.78 15.75-29.31 15.75-7.33 0-15.75-5.86-15.75-14.66 0-13.19 14.84-22 45.06-27.29z" transform="translate(-51.01 -195.02)"/><path class="cls-2" d="M412.77 1.83h13.19v132.25h-13.19z"/><path class="cls-1" d="M507.89 133.93v-15.24h-46.1V92.16h32.44V76.93h-32.44V54.34h44.65V39.1h-62.78v94.83h64.23z"/><path class="cls-1" d="M601.43 303.6c5.25 1 8.54 4.2 11.3 8.27a19.4 19.4 0 0 1-11.3 3.15c-15 0-21.93-11.3-21.67-33.49 0-22.2 6.83-33.49 21.67-33.49s21.67 11.29 21.67 33.49c0 7.22-.66 13.26-2.23 18-4.73-7-10.11-11.16-19.44-12.08zm42.29 17.2a19.5 19.5 0 0 1-12-4.33c6.3-8.54 9.46-20.22 9.46-34.93 0-31-13.92-48.73-39.79-48.73s-39.79 17.73-39.79 48.73 13.92 48.72 39.79 48.72q11.82 0 20.09-4.73c7.88 8.54 10.11 10.51 22.2 10.51zM704.78 294.27c0 15.37-6 20.75-18.26 20.75s-18.25-5.39-18.25-20.75v-60.15h-18.12v59.36c0 27.71 17.08 36.77 36.38 36.77s36.38-9.06 36.38-36.77v-59.36h-18.13zM763.39 252.38h.26l10.64 41.11h-22.07zm-38.74 76.57h18l5.65-20.49h29.95l5.25 20.49h18l-26.92-94.82H752z" transform="translate(-51.01 -195.02)"/><path class="cls-1" d="M815.58 133.93v-15.24h-41.24V39.1h-18.13v94.83h59.37z"/><path class="cls-2" d="M825.53 39.1h18.13v94.82h-18.13z"/><path class="cls-1" d="M850.52 39.1v15.24h24.83v79.59h18.12V54.34h24.82V39.1h-67.77zM942.16 39.1h-18.91l26.13 57v37.83h18.13V96.1l26.14-57h-18.92l-16.28 37.56-16.29-37.56z"/></svg>