<svg xmlns="http://www.w3.org/2000/svg" width="39.813" height="29.43" viewBox="0 0 39.813 29.43">
  <path fill='#fa025f' d="M954.885,4392.68a11.163,11.163,0,0,0,2.464,7.59,8.118,8.118,0,0,0,6.45,2.85,6.836,6.836,0,0,0,5.315-2.12,7.54,7.54,0,0,0,1.929-5.28,7,7,0,0,0-1.758-4.81,5.724,5.724,0,0,0-4.5-1.99q-0.514,0-2.143.21a2.313,2.313,0,0,1-1.114-.38,1.5,1.5,0,0,1-.643-1.46q0-3.24,3.472-6.8a49.449,49.449,0,0,1,6.086-4.87l-1.029-1.93q-8.229,4.245-11.379,9.35a18.536,18.536,0,0,0-3.15,9.64h0Zm23.658,0a11.1,11.1,0,0,0,2.486,7.59,8.04,8.04,0,0,0,6.343,2.85,7.134,7.134,0,0,0,5.357-2.03,7.4,7.4,0,0,0,1.972-5.37,6.938,6.938,0,0,0-1.779-4.83,5.789,5.789,0,0,0-4.479-1.97q-0.514,0-2.143.21a1.593,1.593,0,0,1-1.285-.55,2.181,2.181,0,0,1-.472-1.46q0-3.12,3.643-6.76a45.588,45.588,0,0,1,5.915-4.74l-1.029-1.93q-7.844,4.02-11.186,9.11a18.05,18.05,0,0,0-3.343,9.88h0Z" transform="translate(-954.875 -4373.69)"/>
</svg>
