<?xml version="1.0" standalone="no"?>
<!DOCTYPE svg PUBLIC "-//W3C//DTD SVG 20010904//EN"
 "http://www.w3.org/TR/2001/REC-SVG-20010904/DTD/svg10.dtd">
<svg version="1.0" xmlns="http://www.w3.org/2000/svg"
 width="2328.000000pt" height="142.000000pt" viewBox="0 0 2328.000000 142.000000"
 preserveAspectRatio="xMidYMid meet">

<g transform="translate(0.000000,142.000000) scale(0.100000,-0.100000)"
fill="#2f3239" stroke="none">
<path d="M4965 1134 c-22 -2 -254 -8 -515 -14 -261 -5 -563 -15 -670 -20 -107
-5 -294 -15 -415 -20 -254 -12 -629 -34 -930 -55 -115 -7 -280 -19 -365 -24
-85 -6 -177 -13 -205 -17 -27 -3 -126 -12 -220 -19 -376 -31 -870 -79 -1230
-120 -206 -23 -399 -45 -407 -45 -5 0 -8 -180 -8 -400 l0 -400 11640 0 11640
0 0 376 0 377 -42 -8 c-72 -11 -594 -70 -993 -111 -268 -27 -699 -65 -940 -83
-77 -6 -194 -15 -260 -21 -192 -17 -784 -53 -1140 -69 -121 -6 -305 -15 -410
-21 -867 -46 -3042 -46 -3895 0 -102 6 -286 15 -410 20 -204 10 -364 19 -870
49 -91 6 -190 13 -220 16 -30 3 -143 12 -250 21 -587 43 -1221 105 -1860 179
-74 9 -191 22 -260 30 -69 8 -181 21 -250 30 -404 50 -790 92 -1085 120 -82 7
-168 16 -190 20 -22 3 -94 10 -160 15 -66 6 -199 17 -295 25 -402 35 -767 62
-1145 84 -93 6 -249 15 -345 21 -329 20 -816 38 -1600 60 -326 9 -1583 12
-1695 4z"/>
</g>
</svg>
